HIERARCHY
ROOT Hips
{
  OFFSET 5.84602e-005 68.8428 3.50346
  CHANNELS 6 Xposition Yposition Zposition Zrotation Xrotation Yrotation
  JOINT Spine
  {
    OFFSET 0 8.597 -4.6522
    CHANNELS 3 Zrotation Xrotation Yrotation
    JOINT Spine1
    {
      OFFSET 0 7.8454 0.4098
      CHANNELS 3 Zrotation Xrotation Yrotation
      JOINT Spine2
      {
        OFFSET 0 9.7078 -2.1609
        CHANNELS 3 Zrotation Xrotation Yrotation
        JOINT Neck
        {
          OFFSET 0 21.8761 -0.4549
          CHANNELS 3 Zrotation Xrotation Yrotation
          JOINT Head
          {
            OFFSET 0 12.3537 3.3602
            CHANNELS 3 Zrotation Xrotation Yrotation
            End Site
            {
              OFFSET 0.0001 18.9506 0.5657
            }
          }
        }
        JOINT LeftShoulder
        {
          OFFSET 2.2086 21.1115 7.2329
          CHANNELS 3 Zrotation Xrotation Yrotation
          JOINT LeftArm
          {
            OFFSET 13.1193 3.0282 -4.8998
            CHANNELS 3 Zrotation Xrotation Yrotation
            JOINT LeftForeArm
            {
              OFFSET 27.4081 -0.0973053 -0.2375
              CHANNELS 3 Zrotation Xrotation Yrotation
              JOINT LeftHand
              {
                OFFSET 22.8641 0.0662994 -0.1369
                CHANNELS 3 Zrotation Xrotation Yrotation
                JOINT LeftHandIndex1
                {
                  OFFSET 8.8614 0.775009 2.4612
                  CHANNELS 3 Zrotation Xrotation Yrotation
                  JOINT LeftHandIndex2
                  {
                    OFFSET 3.3146 -0.808304 0.5841
                    CHANNELS 3 Zrotation Xrotation Yrotation
                    JOINT LeftHandIndex3
                    {
                      OFFSET 2.2628 -0.552002 0.3989
                      CHANNELS 3 Zrotation Xrotation Yrotation
                      End Site
                      {
                        OFFSET 1.6102 -0.4807 0.2612
                      }
                    }
                  }
                }
                JOINT LeftHandMiddle1
                {
                  OFFSET 8.9937 0.895004 0.2143
                  CHANNELS 3 Zrotation Xrotation Yrotation
                  JOINT LeftHandMiddle2
                  {
                    OFFSET 4.0984 0.0113983 -0.0242
                    CHANNELS 3 Zrotation Xrotation Yrotation
                    JOINT LeftHandMiddle3
                    {
                      OFFSET 2.2716 0.00689697 -0.0138001
                      CHANNELS 3 Zrotation Xrotation Yrotation
                      End Site
                      {
                        OFFSET 2.0404 -0.1441 0.0027
                      }
                    }
                  }
                }
                JOINT LeftHandRing1
                {
                  OFFSET 8.5234 0.597198 -2.0164
                  CHANNELS 3 Zrotation Xrotation Yrotation
                  JOINT LeftHandRing2
                  {
                    OFFSET 3.7188 -0.188293 -0.2328
                    CHANNELS 3 Zrotation Xrotation Yrotation
                    JOINT LeftHandRing3
                    {
                      OFFSET 2.1191 -0.106598 -0.1332
                      CHANNELS 3 Zrotation Xrotation Yrotation
                      End Site
                      {
                        OFFSET 1.8737 -0.2304 -0.0886
                      }
                    }
                  }
                }
                JOINT LeftHandPinky1
                {
                  OFFSET 7.9094 -0.601089 -3.4825
                  CHANNELS 3 Zrotation Xrotation Yrotation
                  JOINT LeftHandPinky2
                  {
                    OFFSET 2.2874 -0.477005 -0.6314
                    CHANNELS 3 Zrotation Xrotation Yrotation
                    JOINT LeftHandPinky3
                    {
                      OFFSET 1.6774 -0.349396 -0.4633
                      CHANNELS 3 Zrotation Xrotation Yrotation
                      End Site
                      {
                        OFFSET 1.4888 -0.4091 -0.3416
                      }
                    }
                  }
                }
                JOINT LeftHandThumb1
                {
                  OFFSET 1.833 -1.3875 1.3896
                  CHANNELS 3 Zrotation Xrotation Yrotation
                  JOINT LeftHandThumb2
                  {
                    OFFSET 3.4129 -1.121 2.5732
                    CHANNELS 3 Zrotation Xrotation Yrotation
                    JOINT LeftHandThumb3
                    {
                      OFFSET 2.2474 -0.804199 1.6192
                      CHANNELS 3 Zrotation Xrotation Yrotation
                      End Site
                      {
                        OFFSET 1.6527 -0.5689 1.1317
                      }
                    }
                  }
                }
              }
            }
          }
        }
        JOINT RightShoulder
        {
          OFFSET -2.2086 21.1115 7.2329
          CHANNELS 3 Zrotation Xrotation Yrotation
          JOINT RightArm
          {
            OFFSET -13.1216 3.0287 -4.9007
            CHANNELS 3 Zrotation Xrotation Yrotation
            JOINT RightForeArm
            {
              OFFSET -27.4081 -0.0973053 -0.2375
              CHANNELS 3 Zrotation Xrotation Yrotation
              JOINT RightHand
              {
                OFFSET -22.8641 0.0664063 -0.1369
                CHANNELS 3 Zrotation Xrotation Yrotation
                JOINT RightHandIndex1
                {
                  OFFSET -8.8614 0.774994 2.4612
                  CHANNELS 3 Zrotation Xrotation Yrotation
                  JOINT RightHandIndex2
                  {
                    OFFSET -3.3146 -0.808304 0.5841
                    CHANNELS 3 Zrotation Xrotation Yrotation
                    JOINT RightHandIndex3
                    {
                      OFFSET -2.2628 -0.552002 0.3989
                      CHANNELS 3 Zrotation Xrotation Yrotation
                      End Site
                      {
                        OFFSET -1.6102 -0.4807 0.2612
                      }
                    }
                  }
                }
                JOINT RightHandMiddle1
                {
                  OFFSET -8.9937 0.894989 0.2143
                  CHANNELS 3 Zrotation Xrotation Yrotation
                  JOINT RightHandMiddle2
                  {
                    OFFSET -4.0984 0.0113983 -0.0242
                    CHANNELS 3 Zrotation Xrotation Yrotation
                    JOINT RightHandMiddle3
                    {
                      OFFSET -2.2716 0.00691223 -0.0138001
                      CHANNELS 3 Zrotation Xrotation Yrotation
                      End Site
                      {
                        OFFSET -2.0404 -0.1441 0.0027
                      }
                    }
                  }
                }
                JOINT RightHandRing1
                {
                  OFFSET -8.5234 0.597198 -2.0164
                  CHANNELS 3 Zrotation Xrotation Yrotation
                  JOINT RightHandRing2
                  {
                    OFFSET -3.7188 -0.188309 -0.2328
                    CHANNELS 3 Zrotation Xrotation Yrotation
                    JOINT RightHandRing3
                    {
                      OFFSET -2.1191 -0.106598 -0.1332
                      CHANNELS 3 Zrotation Xrotation Yrotation
                      End Site
                      {
                        OFFSET -1.8737 -0.2304 -0.0886
                      }
                    }
                  }
                }
                JOINT RightHandPinky1
                {
                  OFFSET -7.9094 -0.601105 -3.4825
                  CHANNELS 3 Zrotation Xrotation Yrotation
                  JOINT RightHandPinky2
                  {
                    OFFSET -2.2874 -0.477005 -0.6314
                    CHANNELS 3 Zrotation Xrotation Yrotation
                    JOINT RightHandPinky3
                    {
                      OFFSET -1.6774 -0.349396 -0.4633
                      CHANNELS 3 Zrotation Xrotation Yrotation
                      End Site
                      {
                        OFFSET -1.4888 -0.4091 -0.3416
                      }
                    }
                  }
                }
                JOINT RightHandThumb1
                {
                  OFFSET -1.833 -1.38751 1.3896
                  CHANNELS 3 Zrotation Xrotation Yrotation
                  JOINT RightHandThumb2
                  {
                    OFFSET -3.41299 -1.12099 2.5732
                    CHANNELS 3 Zrotation Xrotation Yrotation
                    JOINT RightHandThumb3
                    {
                      OFFSET -2.24741 -0.804108 1.6192
                      CHANNELS 3 Zrotation Xrotation Yrotation
                      End Site
                      {
                        OFFSET -1.6527 -0.5689 1.1317
                      }
                    }
                  }
                }
              }
            }
          }
        }
      }
    }
  }
  JOINT RightUpLeg
  {
    OFFSET -9.1966 3.8861 -0.7581
    CHANNELS 3 Zrotation Xrotation Yrotation
    JOINT RightLeg
    {
      OFFSET -0.7359 -41.0265 0
      CHANNELS 3 Zrotation Xrotation Yrotation
      JOINT RightFoot
      {
        OFFSET 0 -40.2855 0
        CHANNELS 3 Zrotation Xrotation Yrotation
        JOINT RightToeBase
        {
          OFFSET 0 -5.6122 11.7359
          CHANNELS 3 Zrotation Xrotation Yrotation
          End Site
          {
            OFFSET 0 0 7.8731
          }
        }
      }
    }
  }
  JOINT LeftUpLeg
  {
    OFFSET 9.1965 3.8864 -0.7581
    CHANNELS 3 Zrotation Xrotation Yrotation
    JOINT LeftLeg
    {
      OFFSET 0.7359 -41.0268 0
      CHANNELS 3 Zrotation Xrotation Yrotation
      JOINT LeftFoot
      {
        OFFSET 0 -40.2855 0
        CHANNELS 3 Zrotation Xrotation Yrotation
        JOINT LeftToeBase
        {
          OFFSET 0 -5.6122 11.7359
          CHANNELS 3 Zrotation Xrotation Yrotation
          End Site
          {
            OFFSET 0 0 7.8731
          }
        }
      }
    }
  }
}
MOTION
Frames:	6
Frame Time:	0.0333333
5.84602e-005 68.8428 3.50346 0 0 -0 0 0 -0 0 0 -0 0 0 -0 0 0 -0 0 0 -0 0 0 -0 0 0 -0 0 0 -0 0 0 -0 0 0 -0 0 0 -0 0 0 -0 0 0 -0 -0.0146107 -8.87603e-005 -2.63497e-007 2.99804e-018 -2.42657e-020 -1.42182e-022 0 0 -0 -0.0187562 -0.001176 5.858e-005 5.06224e-018 3.88251e-019 1.21329e-020 0 0 -0 -0.012269 -0.00324817 0.000675346 -1.74678e-018 3.88251e-019 -0 0 0 -0 0 0 -0 0 0 -0 0 0 -0 0 0 -0 0 0 -0 0 0 -0 0 0 -0 0 0 -0 0 0 -0 0 0 -0 0.0149955 -9.10982e-005 2.64101e-007 -9.69331e-018 1.21329e-020 -4.7394e-023 0 0 -0 0.0189956 -0.00119102 -5.96516e-005 -5.41541e-019 0 2.42657e-020 0 0 -0 0.0122698 -0.00324857 -0.000673756 -2.00796e-019 0 -1.94126e-019 0 0 -0 0 0 -0 0 0 -0 3.39842 1.33031 -0.0637918 -5.65207e-008 0.834868 -0.000436188 -3.39935 -2.16518 -0.0642563 -8.89002e-024 -1.18485e-023 -1.48106e-024 -3.39844 1.35642 0.0640283 -3.18788e-007 0.782166 -0.000588827 3.39931 -2.13858 0.0634662 1.1399e-023 0 -0 
0.783404 25.4174 11.0745 159.862 -64.9387 -0.366282 -0.0203178 -10.9383 -0.671857 -0.17918 -21.8755 -1.38683 -0.179179 -21.8755 -1.38683 0.076301 0.211695 0.0949836 -2.97689e-006 0.167375 1.38074e-006 9.55372 42.6855 1.80852 44.3325 1.29409 -42.7222 28.0667 -21.3497 -42.6292 70.1029 10.6834 47.1448 6.44737e-007 -5.38659e-007 1.2022e-007 -1.02674e-007 -1.15934e-006 6.1924e-006 1.28947e-006 -1.07732e-006 2.4044e-007 6.44737e-007 -5.38659e-007 1.2022e-007 -0.0145972 -8.87739e-005 -4.64337e-006 1.28945e-006 -1.07735e-006 2.40302e-007 6.44737e-007 -5.38659e-007 1.2022e-007 -0.0187591 -0.00117558 4.90769e-005 1.28944e-006 -1.07736e-006 2.4025e-007 6.44737e-007 -5.38659e-007 1.2022e-007 -0.0122658 -0.00324921 0.000669325 1.28945e-006 -1.07736e-006 2.40289e-007 6.44737e-007 -5.38659e-007 1.2022e-007 -1.02674e-007 -1.15934e-006 6.1924e-006 1.28947e-006 -1.07732e-006 2.4044e-007 42.5896 8.48465 -16.8536 -35.2288 16.5312 52.4214 -24.1826 -19.5675 42.9554 -49.1211 1.40246 11.6229 2.56904e-006 -1.75569e-006 -1.04028e-006 6.31043e-007 5.46253e-007 -1.7384e-007 3.18055e-015 7.95139e-016 -0 2.56904e-006 -1.75569e-006 -1.04028e-006 0.0150027 -9.17052e-005 -7.03709e-007 -1.59028e-015 -1.59028e-015 2.38542e-015 2.56904e-006 -1.75569e-006 -1.04028e-006 0.0190179 -0.00119376 -6.55218e-005 3.18055e-015 1.55052e-014 -3.18055e-015 2.56904e-006 -1.75569e-006 -1.04028e-006 0.0122517 -0.00324483 -0.000674638 -3.18055e-015 2.18663e-015 -0 2.56904e-006 -1.75569e-006 -1.04028e-006 6.31043e-007 5.46253e-007 -1.7384e-007 3.18055e-015 7.95139e-016 -0 -88.0625 -42.2592 -95.9544 41.8239 78.6308 -40.4707 -7.48023 44.6272 10.0827 1.78906e-015 6.36111e-015 3.97569e-016 87.7188 -41.65 95.2047 -41.2866 78.5119 39.4362 6.93818 44.6501 -10.1859 2.4078e-006 2.27245e-007 -2.25433e-006 
0.989619 15.7034 11.5727 -174.346 -76.9758 -0.784499 -0.0518237 -12.2084 -0.785992 -0.289964 -24.4148 -1.64168 -0.289969 -24.4148 -1.64168 0.0880539 -0.0280347 0.109643 8.94778e-007 -0.150681 -3.06545e-007 9.91875 48.8611 3.65266 51.8906 1.09809 -49.687 30.13 -22.574 -50.9842 80.0292 10.5824 54.9942 6.36111e-015 -7.95139e-015 -1.27222e-014 4.77083e-015 -1.15295e-014 -9.54166e-015 9.54166e-015 -1.13307e-014 -1.27222e-014 6.36111e-015 -7.95139e-015 -1.27222e-014 -0.0146035 -8.78222e-005 -2.18456e-006 2.09661e-031 -3.77691e-015 3.18055e-015 6.36111e-015 -7.95139e-015 -1.27222e-014 -0.01877 -0.00117634 6.47462e-005 1.17972e-006 -8.1397e-007 6.62165e-007 6.36111e-015 -7.95139e-015 -1.27222e-014 -0.0122858 -0.00324983 0.000677405 1.59028e-015 7.15625e-015 -0 6.36111e-015 -7.95139e-015 -1.27222e-014 4.77083e-015 -1.15295e-014 -9.54166e-015 9.54166e-015 -1.13307e-014 -1.27222e-014 49.782 9.21383 -19.7403 -43.6328 15.4486 61.3002 -25.7369 -20.5205 51.1743 -57.5509 1.8112 13.1392 3.18055e-015 0 3.18055e-015 -8.82781e-032 7.95139e-016 6.36111e-015 1.59028e-015 3.97569e-015 6.36111e-015 3.18055e-015 0 3.18055e-015 0.0150025 -9.06665e-005 8.54872e-006 -2.80087e-007 8.50197e-008 -2.70764e-006 3.18055e-015 0 3.18055e-015 0.0190007 -0.00119203 -6.34643e-005 1.59028e-015 3.97569e-015 3.18055e-015 3.18055e-015 0 3.18055e-015 0.0122755 -0.00324883 -0.00067435 3.18055e-015 -3.18055e-015 -6.36111e-015 3.18055e-015 0 3.18055e-015 -8.82781e-032 7.95139e-016 6.36111e-015 1.59028e-015 3.97569e-015 6.36111e-015 -103.046 -31.2602 -102.92 121.595 81.1079 -119.07 -11.9555 51.946 15.0305 -2.52831e-007 -3.56243e-007 -7.26425e-007 103.118 -31.4839 103.183 -122.016 81.0681 119.697 12.1081 51.868 -14.9622 3.3097e-006 -5.56673e-007 -2.84111e-007 
0.809326 17.7112 11.3526 179.109 -76.0407 -0.685473 -0.056543 -11.1053 -0.756476 -0.273847 -22.2089 -1.57004 -0.273847 -22.2089 -1.57004 0.084123 -0.379044 0.10458 -2.34517e-007 -0.588139 -6.73364e-007 8.81522 46.0811 4.92802 50.1809 0.795013 -47.8755 30.2897 -23.0616 -49.7697 77.5251 10.6753 53.0077 1.59028e-015 4.77083e-015 -0 5.54268e-007 4.75951e-008 3.56968e-006 -5.54268e-007 -4.75951e-008 -3.56968e-006 1.59028e-015 4.77083e-015 -0 -0.0146223 -9.01278e-005 -1.06419e-005 -3.97569e-015 1.98785e-016 1.59028e-015 1.59028e-015 4.77083e-015 -0 -0.018753 -0.0011767 5.90078e-005 -5.83152e-007 -6.22019e-007 -5.96589e-006 1.59028e-015 4.77083e-015 -0 -0.0122654 -0.00324767 0.000678961 3.18055e-015 7.55382e-015 1.59028e-015 1.59028e-015 4.77083e-015 -0 5.54268e-007 4.75951e-008 3.56968e-006 -5.54268e-007 -4.75951e-008 -3.56968e-006 47.574 8.27392 -19.0955 -41.6537 15.5122 59.2434 -25.8302 -20.8726 49.932 -55.9104 1.99788 12.1747 7.51753e-007 1.41551e-008 1.02218e-006 1.32269e-007 -1.6566e-007 -2.4752e-008 1.98403e-007 -2.48489e-007 -3.7128e-008 7.51753e-007 1.41551e-008 1.02218e-006 0.0150062 -9.16002e-005 5.41481e-006 1.98403e-007 -2.48494e-007 -3.70956e-008 7.51753e-007 1.41551e-008 1.02218e-006 0.0189972 -0.00119048 -6.21796e-005 7.53377e-007 1.4224e-008 1.02217e-006 7.51753e-007 1.41551e-008 1.02218e-006 0.0122609 -0.00324565 -0.000674746 1.98403e-007 -2.48492e-007 -3.7107e-008 7.51753e-007 1.41551e-008 1.02218e-006 1.32269e-007 -1.6566e-007 -2.4752e-008 1.98403e-007 -2.48489e-007 -3.7128e-008 -97.1644 -33.4283 -99.5548 100.436 82.243 -98.2535 -12.7416 49.6306 15.3178 -8.77325e-006 -8.787e-007 -6.44667e-008 97.1602 -33.4279 99.5406 -100.424 82.2432 98.2298 12.7307 49.6326 -15.3216 9.33337e-006 3.65962e-006 1.20391e-008 
0.807934 17.3494 11.2469 179.05 -77.7411 -0.754156 -0.0668865 -10.4801 -0.755741 -0.284512 -20.9583 -1.56456 -0.284511 -20.9583 -1.56456 0.0833458 -0.707252 0.103505 2.84682e-007 -1.00192 -3.52002e-007 8.01607 45.0931 6.30697 50.3463 0.513329 -47.8402 30.783 -23.6071 -50.4938 77.5251 10.6753 53.0077 1.59028e-015 1.78906e-015 4.77083e-015 -3.99709e-007 -3.55673e-007 -6.0013e-006 -5.14243e-007 5.26846e-008 -3.58798e-006 1.59028e-015 1.78906e-015 4.77083e-015 -0.0146165 -8.88332e-005 -9.57191e-006 -7.95139e-016 -5.96354e-016 1.59028e-015 1.59028e-015 1.78906e-015 4.77083e-015 -0.0187459 -0.00117524 6.19201e-005 -1.59028e-015 5.96354e-016 -3.18055e-015 1.59028e-015 1.78906e-015 4.77083e-015 -0.0122606 -0.00324521 0.000671155 -5.12746e-007 5.34946e-008 -3.58805e-006 1.59028e-015 1.78906e-015 4.77083e-015 -3.99709e-007 -3.55673e-007 -6.0013e-006 -5.14243e-007 5.26846e-008 -3.58798e-006 47.2755 7.66817 -19.1706 -41.7808 15.2474 59.3726 -26.1754 -21.2597 50.6045 -56.3095 2.23307 11.7142 -3.31014e-007 4.13912e-007 6.17033e-008 9.93273e-007 1.1571e-007 -7.14969e-008 5.96057e-007 6.12404e-007 2.54701e-009 -3.31014e-007 4.13912e-007 6.17033e-008 0.0149809 -9.04775e-005 -5.73199e-006 5.9607e-007 6.12405e-007 2.46649e-009 -3.31014e-007 4.13912e-007 6.17033e-008 0.0189931 -0.00119038 -5.72144e-005 5.96073e-007 6.12404e-007 2.43931e-009 -3.31014e-007 4.13912e-007 6.17033e-008 0.0122694 -0.00324856 -0.000674176 5.96064e-007 6.12405e-007 2.46399e-009 -3.31014e-007 4.13912e-007 6.17033e-008 9.93273e-007 1.1571e-007 -7.14969e-008 5.96057e-007 6.12404e-007 2.54701e-009 -95.3042 -32.805 -97.8374 100.376 82.2445 -98.2046 -14.412 49.3137 16.669 -8.28646e-006 -2.8361e-007 1.41135e-006 95.3011 -32.8056 97.8225 -100.365 82.2446 98.1818 14.3996 49.3157 -16.6719 1.54446e-005 6.2637e-006 -1.46966e-006 
0.806595 16.9887 11.1343 178.971 -79.4477 -0.84362 -0.0771893 -9.85281 -0.754723 -0.295137 -19.7036 -1.55859 -0.295136 -19.7037 -1.55859 0.0825912 -1.03655 0.102419 -1.99446e-007 -1.41612 4.04283e-007 7.26205 44.0897 7.64638 50.5118 0.231662 -47.8042 31.2716 -24.1591 -51.2169 77.525 10.6753 53.0077 -7.46469e-007 -1.70225e-007 -3.54768e-006 -1.28995e-006 1.09237e-006 8.22007e-008 7.46469e-007 1.70225e-007 3.54768e-006 -7.46469e-007 -1.70225e-007 -3.54768e-006 -0.014614 -8.78373e-005 3.44657e-006 -7.44564e-007 -1.69761e-007 -3.54771e-006 -7.46469e-007 -1.70225e-007 -3.54768e-006 -0.0187722 -0.00117615 5.72395e-005 7.95139e-016 -2.98177e-015 -0 -7.46469e-007 -1.70225e-007 -3.54768e-006 -0.0122931 -0.00325272 0.000678265 -7.95139e-016 1.98785e-016 1.59028e-015 -7.46469e-007 -1.70225e-007 -3.54768e-006 -1.28995e-006 1.09237e-006 8.22007e-008 7.46469e-007 1.70225e-007 3.54768e-006 46.9764 7.06244 -19.2488 -41.9072 14.9823 59.5011 -26.517 -21.651 51.2771 -56.707 2.47159 11.2551 -1.32525e-007 1.65483e-007 2.46113e-008 -5.27487e-007 3.02619e-007 -9.59777e-006 -1.32525e-007 1.65483e-007 2.46113e-008 -1.32525e-007 1.65483e-007 2.46113e-008 0.0149945 -9.11394e-005 1.99744e-006 -3.76848e-007 3.77961e-007 -3.16707e-006 -1.32525e-007 1.65483e-007 2.46113e-008 0.0190039 -0.00119047 -7.23943e-005 1.11304e-007 -4.67315e-008 3.21626e-006 -1.32525e-007 1.65483e-007 2.46113e-008 0.0122759 -0.00324944 -0.00068386 -1.32525e-007 1.65485e-007 2.45973e-008 -1.32525e-007 1.65483e-007 2.46113e-008 -5.27487e-007 3.02619e-007 -9.59777e-006 -1.32525e-007 1.65483e-007 2.46113e-008 -93.4814 -32.1356 -96.1565 100.323 82.2458 -98.1621 -16.0613 48.9713 17.9982 -3.00753e-006 -3.53601e-007 9.95688e-007 93.4793 -32.1372 96.1409 -100.312 82.2459 98.1404 16.0475 48.9733 -18.0001 2.60973e-006 3.58414e-006 -2.00631e-006 
